<svg data-v-423bf9ae="" xmlns="http://www.w3.org/2000/svg" viewBox="0 0 338.45864710176204 60" class="font"><!----><!----><!----><g data-v-423bf9ae="" id="8d062a3e-112e-42cd-b308-d819d69f30a8" fill="black" transform="matrix(5.639098067841383,0,0,5.639098067841383,-6.090223338775331,-16.97368536884251)"><path d="M1.08 13.51L1.08 3.71L2.87 3.71L2.87 11.91L6.90 11.91L6.90 13.51L1.08 13.51ZM9.32 13.65L9.32 13.65Q8.46 13.65 7.88 13.08L7.88 13.08L7.88 13.08Q7.29 12.52 7.29 11.55L7.29 11.55L7.29 11.55Q7.29 10.64 7.95 10.09L7.95 10.09L7.95 10.09Q8.61 9.53 9.51 9.30L9.51 9.30L9.51 9.30Q10.40 9.07 11.23 9.04L11.23 9.04L11.23 9.04Q11.20 8.43 10.91 8.16L10.91 8.16L10.91 8.16Q10.63 7.90 9.97 7.90L9.97 7.90L9.97 7.90Q9.51 7.90 9.06 8.02L9.06 8.02L9.06 8.02Q8.62 8.15 8.05 8.43L8.05 8.43L7.90 7.01L7.90 7.01Q9.17 6.40 10.44 6.40L10.44 6.40L10.44 6.40Q11.68 6.40 12.33 7.07L12.33 7.07L12.33 7.07Q12.98 7.74 12.98 9.21L12.98 9.21L12.98 11.10L12.98 11.10Q12.98 11.63 13.03 11.87L13.03 11.87L13.03 11.87Q13.08 12.10 13.20 12.16L13.20 12.16L13.20 12.16Q13.31 12.22 13.59 12.22L13.59 12.22L13.82 12.22L13.66 13.65L13.03 13.65L13.03 13.65Q12.46 13.65 12.07 13.43L12.07 13.43L12.07 13.43Q11.68 13.22 11.47 12.84L11.47 12.84L11.47 12.84Q11.13 13.22 10.55 13.43L10.55 13.43L10.55 13.43Q9.97 13.65 9.32 13.65L9.32 13.65ZM10.05 12.32L10.05 12.32Q10.32 12.32 10.65 12.19L10.65 12.19L10.65 12.19Q10.99 12.05 11.24 11.82L11.24 11.82L11.24 10.22L11.24 10.22Q10.40 10.26 9.76 10.58L9.76 10.58L9.76 10.58Q9.11 10.91 9.11 11.48L9.11 11.48L9.11 11.48Q9.11 11.91 9.34 12.12L9.34 12.12L9.34 12.12Q9.56 12.32 10.05 12.32L10.05 12.32ZM23.62 8.15L23.62 8.15Q25.48 8.75 25.48 10.72L25.48 10.72L25.48 10.72Q25.48 12.04 24.63 12.78L24.63 12.78L24.63 12.78Q23.77 13.51 22.29 13.51L22.29 13.51L18.20 13.51L18.20 3.71L21.90 3.71L21.90 3.71Q24.70 3.71 24.70 6.08L24.70 6.08L24.70 6.08Q24.70 7.53 23.62 8.15L23.62 8.15ZM19.99 5.31L19.99 7.56L21.63 7.56L21.63 7.56Q22.29 7.56 22.61 7.29L22.61 7.29L22.61 7.29Q22.93 7.01 22.93 6.44L22.93 6.44L22.93 6.44Q22.93 5.84 22.61 5.57L22.61 5.57L22.61 5.57Q22.29 5.31 21.63 5.31L21.63 5.31L19.99 5.31ZM22.02 11.91L22.02 11.91Q22.81 11.91 23.22 11.60L23.22 11.60L23.22 11.60Q23.63 11.28 23.63 10.53L23.63 10.53L23.63 10.53Q23.63 9.79 23.20 9.47L23.20 9.47L23.20 9.47Q22.78 9.16 22.02 9.16L22.02 9.16L19.99 9.16L19.99 11.91L22.02 11.91ZM30.07 13.65L30.07 13.65Q28.85 13.65 27.99 13.15L27.99 13.15L27.99 13.15Q27.13 12.66 26.70 11.82L26.70 11.82L26.70 11.82Q26.28 10.99 26.28 9.97L26.28 9.97L26.28 9.97Q26.28 8.99 26.68 8.18L26.68 8.18L26.68 8.18Q27.09 7.36 27.86 6.88L27.86 6.88L27.86 6.88Q28.63 6.40 29.69 6.40L29.69 6.40L29.69 6.40Q30.67 6.40 31.35 6.80L31.35 6.80L31.35 6.80Q32.03 7.21 32.38 7.90L32.38 7.90L32.38 7.90Q32.72 8.58 32.72 9.44L32.72 9.44L32.72 9.44Q32.72 9.86 32.61 10.39L32.61 10.39L28.08 10.39L28.08 10.39Q28.22 11.31 28.81 11.77L28.81 11.77L28.81 11.77Q29.40 12.22 30.23 12.22L30.23 12.22L30.23 12.22Q31.36 12.22 32.33 11.65L32.33 11.65L32.41 13.12L32.41 13.12Q31.96 13.36 31.37 13.50L31.37 13.50L31.37 13.50Q30.77 13.65 30.07 13.65L30.07 13.65ZM28.13 9.21L30.95 9.21L30.95 9.21Q30.95 8.67 30.65 8.25L30.65 8.25L30.65 8.25Q30.34 7.83 29.69 7.83L29.69 7.83L29.69 7.83Q29.05 7.83 28.66 8.20L28.66 8.20L28.66 8.20Q28.27 8.58 28.13 9.21L28.13 9.21ZM35.70 13.65L35.70 13.65Q34.80 13.65 34.36 13.14L34.36 13.14L34.36 13.14Q33.91 12.63 33.91 11.82L33.91 11.82L33.91 3.01L35.64 3.01L35.64 11.10L35.64 11.10Q35.64 11.66 35.71 11.89L35.71 11.89L35.71 11.89Q35.77 12.12 35.93 12.17L35.93 12.17L35.93 12.17Q36.09 12.22 36.48 12.22L36.48 12.22L36.33 13.65L35.70 13.65ZM39.38 13.65L39.38 13.65Q38.49 13.65 38.04 13.14L38.04 13.14L38.04 13.14Q37.59 12.63 37.59 11.82L37.59 11.82L37.59 3.01L39.33 3.01L39.33 11.10L39.33 11.10Q39.33 11.66 39.39 11.89L39.39 11.89L39.39 11.89Q39.45 12.12 39.61 12.17L39.61 12.17L39.61 12.17Q39.77 12.22 40.17 12.22L40.17 12.22L40.01 13.65L39.38 13.65ZM44.65 13.65L44.65 13.65Q43.43 13.65 42.57 13.15L42.57 13.15L42.57 13.15Q41.71 12.66 41.28 11.82L41.28 11.82L41.28 11.82Q40.85 10.99 40.85 9.97L40.85 9.97L40.85 9.97Q40.85 8.99 41.26 8.18L41.26 8.18L41.26 8.18Q41.66 7.36 42.43 6.88L42.43 6.88L42.43 6.88Q43.20 6.40 44.27 6.40L44.27 6.40L44.27 6.40Q45.25 6.40 45.93 6.80L45.93 6.80L45.93 6.80Q46.61 7.21 46.95 7.90L46.95 7.90L46.95 7.90Q47.29 8.58 47.29 9.44L47.29 9.44L47.29 9.44Q47.29 9.86 47.18 10.39L47.18 10.39L42.66 10.39L42.66 10.39Q42.80 11.31 43.39 11.77L43.39 11.77L43.39 11.77Q43.97 12.22 44.80 12.22L44.80 12.22L44.80 12.22Q45.93 12.22 46.90 11.65L46.90 11.65L46.98 13.12L46.98 13.12Q46.54 13.36 45.94 13.50L45.94 13.50L45.94 13.50Q45.35 13.65 44.65 13.65L44.65 13.65ZM42.70 9.21L45.53 9.21L45.53 9.21Q45.53 8.67 45.22 8.25L45.22 8.25L45.22 8.25Q44.91 7.83 44.27 7.83L44.27 7.83L44.27 7.83Q43.62 7.83 43.23 8.20L43.23 8.20L43.23 8.20Q42.84 8.58 42.70 9.21L42.70 9.21ZM50.64 12.04L54.07 12.04L54.07 13.51L47.92 13.51L51.32 7.98L48.24 7.98L48.24 6.51L54.04 6.51L50.64 12.04ZM56.60 13.65L56.60 13.65Q55.73 13.65 55.15 13.08L55.15 13.08L55.15 13.08Q54.57 12.52 54.57 11.55L54.57 11.55L54.57 11.55Q54.57 10.64 55.23 10.09L55.23 10.09L55.23 10.09Q55.89 9.53 56.78 9.30L56.78 9.30L56.78 9.30Q57.68 9.07 58.51 9.04L58.51 9.04L58.51 9.04Q58.48 8.43 58.19 8.16L58.19 8.16L58.19 8.16Q57.90 7.90 57.25 7.90L57.25 7.90L57.25 7.90Q56.78 7.90 56.34 8.02L56.34 8.02L56.34 8.02Q55.90 8.15 55.33 8.43L55.33 8.43L55.17 7.01L55.17 7.01Q56.45 6.40 57.72 6.40L57.72 6.40L57.72 6.40Q58.95 6.40 59.61 7.07L59.61 7.07L59.61 7.07Q60.26 7.74 60.26 9.21L60.26 9.21L60.26 11.10L60.26 11.10Q60.26 11.63 60.31 11.87L60.31 11.87L60.31 11.87Q60.35 12.10 60.47 12.16L60.47 12.16L60.47 12.16Q60.59 12.22 60.87 12.22L60.87 12.22L61.10 12.22L60.94 13.65L60.31 13.65L60.31 13.65Q59.74 13.65 59.35 13.43L59.35 13.43L59.35 13.43Q58.95 13.22 58.74 12.84L58.74 12.84L58.74 12.84Q58.41 13.22 57.83 13.43L57.83 13.43L57.83 13.43Q57.25 13.65 56.60 13.65L56.60 13.65ZM57.33 12.32L57.33 12.32Q57.60 12.32 57.93 12.19L57.93 12.19L57.93 12.19Q58.27 12.05 58.52 11.82L58.52 11.82L58.52 10.22L58.52 10.22Q57.68 10.26 57.04 10.58L57.04 10.58L57.04 10.58Q56.39 10.91 56.39 11.48L56.39 11.48L56.39 11.48Q56.39 11.91 56.62 12.12L56.62 12.12L56.62 12.12Q56.84 12.32 57.33 12.32L57.33 12.32Z"></path></g><!----><!----></svg>